<?xml version="1.0" encoding="UTF-8"?>
<!DOCTYPE svg PUBLIC "-//W3C//DTD SVG 1.1//EN" "http://www.w3.org/Graphics/SVG/1.1/DTD/svg11.dtd">
<!-- Creator: CorelDRAW 2019 (64-Bit) -->
<svg xmlns="http://www.w3.org/2000/svg" xml:space="preserve" width="53.8143mm" height="17.0447mm" version="1.1" style="shape-rendering:geometricPrecision; text-rendering:geometricPrecision; image-rendering:optimizeQuality; fill-rule:evenodd; clip-rule:evenodd"
viewBox="0 0 2427.15 768.75"
 xmlns:xlink="http://www.w3.org/1999/xlink">
 <defs>
  <style type="text/css">
   <![CDATA[
    .fil1 {fill:#FEFEFE}
    .fil0 {fill:#FEFEFE;fill-rule:nonzero}
   ]]>
  </style>
 </defs>
 <g id="Слой_x0020_1">
  <metadata id="CorelCorpID_0Corel-Layer"/>
  <path class="fil0" d="M11.84 253.18l0 -12.22 30.16 0 0 -224.54 -25.9 0 0 -11.46 206.91 0 0.76 65.3 -12.6 0c-8.47,-21.13 -16.99,-35.39 -25.71,-42.77 -8.72,-7.38 -21.38,-11.08 -37.99,-11.08l-42.83 0 0 101.96c1.02,0.13 2.16,0.25 3.44,0.32 1.34,0.06 3.05,0.06 5.34,0.06 13.49,0 23.74,-3.56 30.68,-10.69 7,-7.13 11.52,-18.71 13.62,-34.75l12.6 0 0 105.78 -12.6 0c-1.34,-17.18 -5.6,-29.47 -12.66,-36.92 -7.06,-7.45 -18.14,-11.2 -33.16,-11.2l-7.25 0 0 109.98 41.56 0c20.49,0 36.53,-5.41 48.05,-16.23 11.59,-10.88 20.68,-29.02 27.24,-54.42l11.84 0 -2.61 82.87 -218.87 0zm255.91 0l0 -12.22 25.59 0 0 -224.54 -25.59 0 0 -11.46 123.72 0 0 11.46 -34.37 0 0 224.54 36.21 0c20.43,0 36.47,-5.41 48.05,-16.23 11.59,-10.88 20.62,-29.02 27.24,-54.42l11.84 0 -2.8 82.87 -209.9 0zm226.83 0l0 -12.22 30.16 0 0 -224.54 -25.9 0 0 -11.46 206.91 0 0.76 65.3 -12.6 0c-8.47,-21.13 -16.99,-35.39 -25.71,-42.77 -8.72,-7.38 -21.38,-11.08 -37.99,-11.08l-42.83 0 0 101.96c1.02,0.13 2.16,0.25 3.44,0.32 1.34,0.06 3.05,0.06 5.34,0.06 13.49,0 23.74,-3.56 30.68,-10.69 7,-7.13 11.52,-18.71 13.62,-34.75l12.6 0 0 105.78 -12.6 0c-1.34,-17.18 -5.6,-29.47 -12.66,-36.92 -7.06,-7.45 -18.14,-11.2 -33.16,-11.2l-7.25 0 0 109.98 41.56 0c20.49,0 36.53,-5.41 48.05,-16.23 11.59,-10.88 20.68,-29.02 27.24,-54.42l11.84 0 -2.61 82.87 -218.87 0zm250.19 0l0 -12.22 19.22 0c4.96,0 8.4,-1.08 10.37,-3.25 1.91,-2.16 2.86,-6.43 2.86,-12.79l0 -195.46c0,-5.34 -1.08,-8.84 -3.18,-10.5 -2.1,-1.72 -6.49,-2.55 -13.24,-2.55l-15.28 0 0 -11.46 100.5 0 104.57 142.95 0 -113.03c0,-7.58 -1.15,-12.54 -3.44,-14.89 -2.29,-2.35 -7.26,-3.57 -14.89,-3.57l-16.04 0 0 -11.46 79.43 0 0 11.46 -14.51 0c-6.24,0 -10.5,1.28 -12.86,3.82 -2.35,2.55 -3.56,7.45 -3.56,14.64l0 224.03 -10.25 0 -162.35 -223.27 0 191.7c0,4.33 1.21,7.7 3.63,10.05 2.42,2.36 5.92,3.57 10.5,3.57l22.15 0 0 12.22 -83.63 0zm329.43 -82.48l67.33 0 -32.78 -87 -34.56 87zm-66 82.48l0 -12.22 15.28 0c4.14,0 7.57,-1.4 10.25,-4.14 2.74,-2.73 5.54,-7.7 8.4,-14.89l85.28 -221.93 14.89 0 93.24 240.96 22.02 0 0 12.22 -120.29 0 0 -12.22 30.23 0 -21.83 -58.05 -75.55 0 -16.42 42.39c-0.38,0.7 -0.64,1.91 -0.83,3.44 -0.19,1.53 -0.32,3.37 -0.32,5.48 0,2.16 1.02,3.82 2.93,4.97 1.91,1.21 4.65,1.78 8.08,1.78l22.21 0 0 12.22 -77.58 0z"/>
  <path class="fil0" d="M520.3 589.02l0 -72.81 14.51 0c6.36,21.13 15.72,37.11 28.19,47.93 12.54,10.82 27.81,16.23 45.95,16.23 16.3,0 29.72,-4.33 40.42,-13.05 10.69,-8.72 16.04,-19.79 16.04,-33.22 0,-7.19 -1.27,-13.11 -3.82,-17.82 -2.54,-4.65 -6.87,-8.98 -12.98,-12.92 -6.94,-4.58 -20.68,-9.29 -41.17,-14 -7.58,-1.72 -13.37,-3.12 -17.38,-4.07 -23.99,-6.11 -41.43,-15.08 -52.31,-26.86 -10.88,-11.84 -16.3,-27.68 -16.3,-47.54 0,-23.3 7.26,-42.07 21.7,-56.45 14.51,-14.32 33.42,-21.51 56.84,-21.51 9.54,0 18.46,1.34 26.73,4.01 8.28,2.61 16.04,6.62 23.42,11.9l13.62 -10.95 11.97 0 1.52 65.68 -12.6 0c-4.83,-19.29 -12.92,-33.98 -24.25,-44.04 -11.27,-10.12 -25.39,-15.15 -42.26,-15.15 -14,0 -25.52,3.44 -34.56,10.25 -8.98,6.87 -13.49,15.53 -13.49,25.97 0,15.65 16.61,27.18 49.77,34.56 4.46,0.96 7.83,1.72 10.18,2.23 30.99,7.19 52.76,17.44 65.24,30.68 12.54,13.24 18.78,32.01 18.78,56.32 0,25.14 -7.96,45.95 -23.93,62.57 -15.98,16.61 -36.09,24.88 -60.33,24.88 -12.35,0 -23.17,-1.4 -32.46,-4.2 -9.35,-2.74 -18.01,-7.19 -26.1,-13.24l-17.18 14.64 -13.75 0zm201.95 -2.93l0 -12.22 30.16 0 0 -224.54 -30.16 0 0 -11.07 122.96 0 0 11.07 -29.79 0 0 101.96 83.25 0 0 -101.96 -29.79 0 0 -11.07 122.58 0 0 11.07 -30.17 0 0 224.54 30.17 0 0 12.22 -122.58 0 0 -12.22 29.79 0 0 -108.45 -83.25 0 0 108.45 29.79 0 0 12.22 -122.96 0zm348.2 -82.48l67.33 0 -32.78 -87 -34.56 87zm-66 82.48l0 -12.22 15.28 0c4.14,0 7.57,-1.4 10.25,-4.14 2.74,-2.73 5.54,-7.7 8.4,-14.89l85.28 -221.93 14.89 0 93.24 240.96 22.02 0 0 12.22 -120.29 0 0 -12.22 30.23 0 -21.83 -58.05 -75.55 0 -16.42 42.39c-0.38,0.7 -0.64,1.91 -0.83,3.44 -0.19,1.53 -0.32,3.37 -0.32,5.48 0,2.16 1.02,3.82 2.93,4.97 1.91,1.21 4.65,1.78 8.08,1.78l22.21 0 0 12.22 -77.58 0zm270.05 2.93l0 -72.81 14.51 0c6.36,21.13 15.72,37.11 28.19,47.93 12.54,10.82 27.81,16.23 45.95,16.23 16.3,0 29.72,-4.33 40.42,-13.05 10.69,-8.72 16.04,-19.79 16.04,-33.22 0,-7.19 -1.27,-13.11 -3.82,-17.82 -2.54,-4.65 -6.87,-8.98 -12.98,-12.92 -6.94,-4.58 -20.68,-9.29 -41.17,-14 -7.58,-1.72 -13.37,-3.12 -17.38,-4.07 -23.99,-6.11 -41.43,-15.08 -52.31,-26.86 -10.88,-11.84 -16.3,-27.68 -16.3,-47.54 0,-23.3 7.26,-42.07 21.7,-56.45 14.51,-14.32 33.42,-21.51 56.84,-21.51 9.54,0 18.46,1.34 26.73,4.01 8.28,2.61 16.04,6.62 23.42,11.9l13.62 -10.95 11.97 0 1.52 65.68 -12.6 0c-4.83,-19.29 -12.92,-33.98 -24.25,-44.04 -11.27,-10.12 -25.39,-15.15 -42.26,-15.15 -14,0 -25.52,3.44 -34.56,10.25 -8.98,6.87 -13.49,15.53 -13.49,25.97 0,15.65 16.61,27.18 49.77,34.56 4.46,0.96 7.83,1.72 10.18,2.23 30.99,7.19 52.76,17.44 65.24,30.68 12.54,13.24 18.78,32.01 18.78,56.32 0,25.14 -7.96,45.95 -23.93,62.57 -15.98,16.61 -36.09,24.88 -60.33,24.88 -12.35,0 -23.17,-1.4 -32.46,-4.2 -9.35,-2.74 -18.01,-7.19 -26.1,-13.24l-17.18 14.64 -13.75 0zm201.95 -2.93l0 -12.22 30.16 0 0 -224.54 -30.16 0 0 -11.07 122.96 0 0 11.07 -29.79 0 0 101.96 83.25 0 0 -101.96 -29.79 0 0 -11.07 122.58 0 0 11.07 -30.17 0 0 224.54 30.17 0 0 12.22 -122.58 0 0 -12.22 29.79 0 0 -108.45 -83.25 0 0 108.45 29.79 0 0 12.22 -122.96 0zm291.74 0l0 -12.22 30.55 0 0 -224.54 -30.55 0 0 -11.46 125.25 0 0 11.46 -30.55 0 0 224.54 30.55 0 0 12.22 -125.25 0zm146.19 0l0 -12.22 19.22 0c4.96,0 8.4,-1.08 10.37,-3.25 1.91,-2.16 2.86,-6.43 2.86,-12.79l0 -195.46c0,-5.34 -1.08,-8.84 -3.18,-10.5 -2.1,-1.72 -6.49,-2.55 -13.24,-2.55l-15.28 0 0 -11.46 100.5 0 104.57 142.95 0 -113.03c0,-7.58 -1.15,-12.54 -3.44,-14.89 -2.29,-2.35 -7.26,-3.57 -14.89,-3.57l-16.04 0 0 -11.46 79.43 0 0 11.46 -14.51 0c-6.24,0 -10.5,1.28 -12.86,3.82 -2.35,2.55 -3.56,7.45 -3.56,14.64l0 224.03 -10.25 0 -162.35 -223.27 0 191.7c0,4.33 1.21,7.7 3.63,10.05 2.42,2.36 5.92,3.57 10.5,3.57l22.15 0 0 12.22 -83.63 0zm329.43 -82.48l67.33 0 -32.78 -87 -34.56 87zm-66 82.48l0 -12.22 15.28 0c4.14,0 7.57,-1.4 10.25,-4.14 2.74,-2.73 5.54,-7.7 8.4,-14.89l85.28 -221.93 14.89 0 93.24 240.96 22.02 0 0 12.22 -120.29 0 0 -12.22 30.23 0 -21.83 -58.05 -75.55 0 -16.42 42.39c-0.38,0.7 -0.64,1.91 -0.83,3.44 -0.19,1.53 -0.32,3.37 -0.32,5.48 0,2.16 1.02,3.82 2.93,4.97 1.91,1.21 4.65,1.78 8.08,1.78l22.21 0 0 12.22 -77.58 0z"/>
  <g id="_2386658772720">
   <polygon class="fil1" points="-0,352.05 358,352.05 358,403.2 -0,403.2 "/>
   <polygon class="fil1" points="-0,444.11 358,444.11 358,495.25 -0,495.25 "/>
   <polygon class="fil1" points="-0,536.17 358,536.17 358,587.31 -0,587.31 "/>
  </g>
  <path class="fil0" d="M632.74 764.58c-0.2,0.68 -0.51,1.24 -0.89,1.67 -0.4,0.43 -0.93,0.74 -1.64,0.97 -0.69,0.23 -1.55,0.38 -2.56,0.48 -1.01,0.1 -2.26,0.15 -3.75,0.15 -1.52,0 -2.84,-0.05 -3.9,-0.15 -1.06,-0.1 -1.93,-0.25 -2.63,-0.48 -0.68,-0.23 -1.19,-0.53 -1.54,-0.97 -0.36,-0.43 -0.64,-0.99 -0.81,-1.67l-20.11 -72.52 -0.15 0 -18.56 72.52c-0.13,0.68 -0.38,1.24 -0.74,1.67 -0.36,0.43 -0.84,0.74 -1.47,0.97 -0.66,0.23 -1.49,0.38 -2.51,0.48 -1.01,0.1 -2.3,0.15 -3.87,0.15 -1.65,0 -3.01,-0.05 -4.1,-0.15 -1.09,-0.1 -1.98,-0.25 -2.66,-0.48 -0.68,-0.23 -1.21,-0.53 -1.59,-0.97 -0.38,-0.43 -0.64,-0.99 -0.78,-1.67l-25.37 -88.7c-0.28,-1.14 -0.46,-2.03 -0.48,-2.66 -0.03,-0.66 0.18,-1.14 0.6,-1.49 0.41,-0.33 1.09,-0.56 2.03,-0.66 0.94,-0.1 2.21,-0.15 3.8,-0.15 1.52,0 2.73,0.03 3.62,0.1 0.89,0.08 1.57,0.23 2.05,0.43 0.46,0.18 0.78,0.46 0.96,0.81 0.18,0.33 0.31,0.78 0.41,1.34l21.6 80.44 0.05 0 20.49 -80.32c0.15,-0.53 0.33,-0.99 0.56,-1.37 0.23,-0.38 0.58,-0.66 1.06,-0.86 0.51,-0.18 1.21,-0.33 2.12,-0.43 0.91,-0.1 2.1,-0.15 3.59,-0.15 1.39,0 2.49,0.05 3.29,0.15 0.83,0.1 1.49,0.25 1.98,0.43 0.51,0.2 0.86,0.48 1.09,0.86 0.2,0.38 0.4,0.83 0.55,1.37l22.03 80.32 0.15 0 21.12 -80.39c0.15,-0.48 0.31,-0.91 0.46,-1.29 0.15,-0.38 0.46,-0.66 0.94,-0.86 0.46,-0.18 1.14,-0.33 2,-0.43 0.86,-0.1 2,-0.15 3.44,-0.15 1.49,0 2.66,0.05 3.52,0.18 0.86,0.13 1.5,0.36 1.9,0.71 0.38,0.35 0.58,0.83 0.55,1.49 -0.03,0.63 -0.18,1.52 -0.41,2.66l-25.45 88.63zm113.52 -2.48c0,0.91 -0.05,1.7 -0.15,2.35 -0.1,0.66 -0.28,1.21 -0.51,1.67 -0.25,0.46 -0.53,0.76 -0.86,0.97 -0.33,0.2 -0.69,0.3 -1.09,0.3l-46.11 0c-1.14,0 -2.23,-0.38 -3.24,-1.14 -1.01,-0.78 -1.52,-2.12 -1.52,-4.05l0 -85.64c0,-1.93 0.51,-3.27 1.52,-4.05 1.01,-0.76 2.1,-1.14 3.24,-1.14l45.58 0c0.4,0 0.76,0.1 1.09,0.3 0.33,0.2 0.58,0.51 0.78,0.97 0.18,0.46 0.36,1.01 0.48,1.67 0.13,0.66 0.18,1.5 0.18,2.49 0,0.91 -0.05,1.67 -0.18,2.35 -0.13,0.66 -0.31,1.21 -0.48,1.65 -0.2,0.4 -0.48,0.71 -0.78,0.91 -0.33,0.2 -0.69,0.3 -1.09,0.3l-37.58 0 0 30.08 32.26 0c0.4,0 0.76,0.1 1.09,0.33 0.3,0.23 0.58,0.53 0.81,0.93 0.23,0.41 0.38,0.94 0.48,1.62 0.1,0.71 0.15,1.52 0.15,2.45 0,0.91 -0.05,1.67 -0.15,2.3 -0.1,0.66 -0.25,1.16 -0.48,1.57 -0.23,0.41 -0.51,0.69 -0.81,0.86 -0.33,0.18 -0.69,0.25 -1.09,0.25l-32.26 0 0 34.34 38.11 0c0.41,0 0.76,0.1 1.09,0.3 0.33,0.2 0.61,0.51 0.86,0.92 0.23,0.43 0.41,0.98 0.51,1.64 0.1,0.66 0.15,1.5 0.15,2.49zm100.86 -22.24c0,3.01 -0.38,5.8 -1.14,8.33 -0.78,2.56 -1.85,4.84 -3.24,6.89 -1.39,2.03 -3.06,3.8 -5.02,5.34 -1.95,1.52 -4.15,2.81 -6.61,3.85 -2.46,1.04 -5.09,1.83 -7.87,2.33 -2.81,0.53 -6,0.78 -9.62,0.78l-25.09 0c-1.14,0 -2.23,-0.38 -3.24,-1.14 -1.01,-0.78 -1.52,-2.12 -1.52,-4.05l0 -85.64c0,-1.93 0.51,-3.27 1.52,-4.05 1.01,-0.76 2.1,-1.14 3.24,-1.14l21.82 0c5.75,0 10.46,0.53 14.13,1.62 3.65,1.09 6.71,2.68 9.16,4.76 2.46,2.07 4.31,4.63 5.55,7.64 1.24,3.01 1.85,6.43 1.85,10.23 0,2.28 -0.28,4.46 -0.81,6.54 -0.55,2.07 -1.37,4 -2.43,5.75 -1.06,1.77 -2.38,3.34 -4,4.71 -1.62,1.39 -3.47,2.53 -5.54,3.41 2.63,0.51 5.09,1.39 7.37,2.71 2.26,1.32 4.26,2.99 5.98,5.02 1.7,2.03 3.04,4.41 4.03,7.11 0.99,2.74 1.49,5.72 1.49,8.99zm-19.14 -42.99c0,-2.33 -0.33,-4.43 -0.96,-6.33 -0.64,-1.87 -1.65,-3.47 -3.04,-4.79 -1.39,-1.32 -3.19,-2.3 -5.42,-3.01 -2.23,-0.69 -5.16,-1.04 -8.84,-1.04l-13.19 0 0 31.14 14.54 0c3.32,0 5.98,-0.43 8.02,-1.29 2.03,-0.89 3.7,-2.05 5.04,-3.5 1.31,-1.47 2.3,-3.19 2.91,-5.14 0.64,-1.95 0.94,-3.97 0.94,-6.05zm5.77 43.75c0,-2.86 -0.46,-5.39 -1.37,-7.57 -0.91,-2.18 -2.26,-4 -4,-5.49 -1.77,-1.49 -3.95,-2.61 -6.61,-3.39 -2.63,-0.76 -5.98,-1.14 -9.98,-1.14l-15.27 0 0 33.88 18.54 0c2.91,0 5.47,-0.36 7.64,-1.04 2.18,-0.69 4.08,-1.72 5.75,-3.09 1.64,-1.37 2.94,-3.07 3.87,-5.09 0.93,-2.03 1.42,-4.38 1.42,-7.06zm177.6 -22.66c0,8.31 -1.06,15.57 -3.19,21.78 -2.13,6.23 -5.24,11.37 -9.32,15.45 -4.08,4.08 -9.09,7.14 -15.01,9.16 -5.95,2.03 -13.02,3.04 -21.22,3.04l-20.33 0c-1.14,0 -2.23,-0.38 -3.24,-1.14 -1.01,-0.78 -1.52,-2.12 -1.52,-4.05l0 -85.64c0,-1.93 0.51,-3.27 1.52,-4.05 1.01,-0.76 2.1,-1.14 3.24,-1.14l21.73 0c8.33,0 15.34,1.06 21.09,3.22 5.72,2.15 10.53,5.27 14.43,9.29 3.87,4.03 6.81,8.92 8.81,14.66 2,5.72 3.01,12.2 3.01,19.42zm-13.37 0.56c0,-5.19 -0.63,-10.03 -1.93,-14.51 -1.29,-4.48 -3.32,-8.36 -6.05,-11.62 -2.76,-3.27 -6.23,-5.8 -10.46,-7.65 -4.2,-1.82 -9.62,-2.73 -16.25,-2.73l-13.02 0 0 74.75 13.14 0c6.15,0 11.32,-0.76 15.55,-2.3 4.2,-1.52 7.72,-3.87 10.53,-7.04 2.84,-3.16 4.97,-7.14 6.36,-11.93 1.42,-4.76 2.12,-10.43 2.12,-16.96zm103.27 43.58c0,0.91 -0.05,1.7 -0.15,2.35 -0.1,0.66 -0.28,1.21 -0.51,1.67 -0.25,0.46 -0.53,0.76 -0.86,0.97 -0.33,0.2 -0.69,0.3 -1.09,0.3l-46.11 0c-1.14,0 -2.23,-0.38 -3.24,-1.14 -1.01,-0.78 -1.52,-2.12 -1.52,-4.05l0 -85.64c0,-1.93 0.51,-3.27 1.52,-4.05 1.01,-0.76 2.1,-1.14 3.24,-1.14l45.58 0c0.4,0 0.76,0.1 1.09,0.3 0.33,0.2 0.58,0.51 0.78,0.97 0.18,0.46 0.36,1.01 0.48,1.67 0.13,0.66 0.18,1.5 0.18,2.49 0,0.91 -0.05,1.67 -0.18,2.35 -0.13,0.66 -0.31,1.21 -0.48,1.65 -0.2,0.4 -0.48,0.71 -0.78,0.91 -0.33,0.2 -0.69,0.3 -1.09,0.3l-37.58 0 0 30.08 32.26 0c0.4,0 0.76,0.1 1.09,0.33 0.3,0.23 0.58,0.53 0.81,0.93 0.23,0.41 0.38,0.94 0.48,1.62 0.1,0.71 0.15,1.52 0.15,2.45 0,0.91 -0.05,1.67 -0.15,2.3 -0.1,0.66 -0.25,1.16 -0.48,1.57 -0.23,0.41 -0.51,0.69 -0.81,0.86 -0.33,0.18 -0.69,0.25 -1.09,0.25l-32.26 0 0 34.34 38.11 0c0.41,0 0.76,0.1 1.09,0.3 0.33,0.2 0.61,0.51 0.86,0.92 0.23,0.43 0.41,0.98 0.51,1.64 0.1,0.66 0.15,1.5 0.15,2.49zm76.3 3.06c-0.2,0.55 -0.48,1.01 -0.83,1.34 -0.33,0.35 -0.81,0.63 -1.44,0.81 -0.61,0.2 -1.39,0.36 -2.38,0.43 -0.96,0.07 -2.17,0.1 -3.67,0.1 -1.09,0 -2.03,0 -2.83,-0.03 -0.84,-0.02 -1.52,-0.1 -2.13,-0.2 -0.58,-0.1 -1.09,-0.2 -1.52,-0.33 -0.43,-0.13 -0.78,-0.28 -1.06,-0.48 -0.3,-0.2 -0.53,-0.43 -0.71,-0.71 -0.18,-0.28 -0.33,-0.61 -0.48,-0.99l-31.4 -89.23c-0.38,-1.09 -0.58,-1.95 -0.61,-2.63 -0.02,-0.66 0.18,-1.17 0.61,-1.52 0.46,-0.33 1.16,-0.56 2.15,-0.66 0.99,-0.1 2.33,-0.15 4.03,-0.15 1.37,0 2.48,0.03 3.29,0.1 0.81,0.08 1.44,0.23 1.9,0.43 0.43,0.18 0.76,0.46 0.99,0.76 0.23,0.33 0.43,0.74 0.63,1.24l27.53 80.83 0.15 0 26.79 -80.67c0.13,-0.55 0.3,-1.01 0.51,-1.34 0.2,-0.36 0.56,-0.64 1.04,-0.81 0.51,-0.2 1.19,-0.36 2.07,-0.43 0.88,-0.07 2.07,-0.1 3.57,-0.1 1.52,0 2.74,0.05 3.62,0.18 0.89,0.13 1.5,0.36 1.83,0.71 0.33,0.35 0.46,0.86 0.38,1.52 -0.08,0.69 -0.31,1.55 -0.71,2.63l-31.3 89.21zm117.68 -3.06c0,0.91 -0.05,1.7 -0.15,2.35 -0.1,0.66 -0.28,1.21 -0.51,1.67 -0.25,0.46 -0.53,0.76 -0.86,0.97 -0.33,0.2 -0.69,0.3 -1.09,0.3l-46.11 0c-1.14,0 -2.23,-0.38 -3.24,-1.14 -1.01,-0.78 -1.52,-2.12 -1.52,-4.05l0 -85.64c0,-1.93 0.51,-3.27 1.52,-4.05 1.01,-0.76 2.1,-1.14 3.24,-1.14l45.58 0c0.4,0 0.76,0.1 1.09,0.3 0.33,0.2 0.58,0.51 0.78,0.97 0.18,0.46 0.36,1.01 0.48,1.67 0.13,0.66 0.18,1.5 0.18,2.49 0,0.91 -0.05,1.67 -0.18,2.35 -0.13,0.66 -0.31,1.21 -0.48,1.65 -0.2,0.4 -0.48,0.71 -0.78,0.91 -0.33,0.2 -0.69,0.3 -1.09,0.3l-37.58 0 0 30.08 32.26 0c0.4,0 0.76,0.1 1.09,0.33 0.3,0.23 0.58,0.53 0.81,0.93 0.23,0.41 0.38,0.94 0.48,1.62 0.1,0.71 0.15,1.52 0.15,2.45 0,0.91 -0.05,1.67 -0.15,2.3 -0.1,0.66 -0.25,1.16 -0.48,1.57 -0.23,0.41 -0.51,0.69 -0.81,0.86 -0.33,0.18 -0.69,0.25 -1.09,0.25l-32.26 0 0 34.34 38.11 0c0.41,0 0.76,0.1 1.09,0.3 0.33,0.2 0.61,0.51 0.86,0.92 0.23,0.43 0.41,0.98 0.51,1.64 0.1,0.66 0.15,1.5 0.15,2.49zm87.34 -0.31c0,1.01 -0.05,1.85 -0.15,2.51 -0.1,0.66 -0.26,1.24 -0.48,1.72 -0.23,0.46 -0.48,0.81 -0.81,1.04 -0.33,0.23 -0.71,0.33 -1.16,0.33l-42.46 0c-1.14,0 -2.23,-0.38 -3.24,-1.14 -1.01,-0.78 -1.52,-2.12 -1.52,-4.05l0 -88.9c0,-0.41 0.1,-0.76 0.3,-1.04 0.2,-0.31 0.53,-0.53 1.04,-0.71 0.48,-0.18 1.16,-0.33 2,-0.46 0.83,-0.13 1.84,-0.18 3.04,-0.18 1.24,0 2.26,0.05 3.09,0.18 0.81,0.13 1.47,0.28 1.95,0.46 0.51,0.18 0.83,0.41 1.04,0.71 0.2,0.28 0.3,0.63 0.3,1.04l0 83 34.46 0c0.46,0 0.83,0.1 1.16,0.33 0.31,0.23 0.58,0.55 0.81,0.96 0.23,0.43 0.38,0.99 0.48,1.7 0.1,0.69 0.15,1.52 0.15,2.51zm107.88 -43.52c0,7.77 -0.91,14.76 -2.73,20.99 -1.85,6.23 -4.59,11.52 -8.2,15.9 -3.65,4.36 -8.2,7.73 -13.7,10.08 -5.49,2.35 -11.9,3.52 -19.22,3.52 -7.22,0 -13.44,-1.06 -18.71,-3.22 -5.29,-2.15 -9.62,-5.29 -13.07,-9.39 -3.44,-4.1 -6,-9.19 -7.67,-15.27 -1.7,-6.08 -2.53,-13.07 -2.53,-20.97 0,-7.57 0.91,-14.46 2.73,-20.63 1.85,-6.18 4.58,-11.42 8.25,-15.75 3.65,-4.31 8.23,-7.65 13.72,-10 5.47,-2.35 11.88,-3.52 19.22,-3.52 7.07,0 13.22,1.06 18.46,3.19 5.24,2.13 9.62,5.22 13.09,9.3 3.49,4.08 6.1,9.12 7.8,15.14 1.7,6 2.56,12.89 2.56,20.64zm-13.52 0.88c0,-5.42 -0.48,-10.48 -1.44,-15.14 -0.96,-4.66 -2.56,-8.71 -4.81,-12.16 -2.25,-3.42 -5.24,-6.1 -8.99,-8.03 -3.77,-1.92 -8.41,-2.89 -13.93,-2.89 -5.54,0 -10.18,1.04 -13.92,3.12 -3.75,2.07 -6.81,4.83 -9.14,8.28 -2.35,3.47 -4.03,7.49 -5.04,12.13 -1.01,4.61 -1.52,9.44 -1.52,14.53 0,5.65 0.48,10.82 1.42,15.55 0.94,4.76 2.51,8.84 4.74,12.28 2.21,3.42 5.19,6.08 8.91,7.98 3.73,1.9 8.41,2.86 14.03,2.86 5.59,0 10.28,-1.04 14.08,-3.11 3.8,-2.08 6.86,-4.86 9.19,-8.41 2.3,-3.52 3.97,-7.62 4.96,-12.26 0.99,-4.63 1.47,-9.54 1.47,-14.73zm109.49 -19.65c0,4.81 -0.78,9.14 -2.38,13.02 -1.57,3.85 -3.82,7.14 -6.79,9.88 -2.94,2.71 -6.53,4.81 -10.81,6.31 -4.28,1.49 -9.37,2.23 -15.32,2.23l-10.89 0 0 34.53c0,0.41 -0.1,0.76 -0.33,1.04 -0.23,0.3 -0.58,0.53 -1.04,0.71 -0.48,0.18 -1.11,0.33 -1.93,0.46 -0.83,0.13 -1.85,0.18 -3.09,0.18 -1.24,0 -2.25,-0.05 -3.09,-0.18 -0.81,-0.13 -1.47,-0.28 -1.95,-0.46 -0.51,-0.18 -0.83,-0.41 -1.04,-0.71 -0.2,-0.28 -0.3,-0.64 -0.3,-1.04l0 -88.6c0,-1.98 0.53,-3.39 1.57,-4.23 1.04,-0.83 2.17,-1.27 3.47,-1.27l20.54 0c2.07,0 4.08,0.08 5.98,0.25 1.9,0.18 4.15,0.56 6.73,1.11 2.61,0.58 5.24,1.65 7.95,3.19 2.68,1.57 4.96,3.49 6.86,5.77 1.88,2.28 3.32,4.91 4.33,7.9 1.01,2.99 1.52,6.31 1.52,9.9zm-13.37 1.01c0,-3.92 -0.74,-7.19 -2.18,-9.82 -1.47,-2.61 -3.27,-4.58 -5.44,-5.88 -2.15,-1.27 -4.38,-2.1 -6.66,-2.43 -2.3,-0.35 -4.56,-0.53 -6.74,-0.53l-11.8 0 0 38.59 11.52 0c3.85,0 7.06,-0.51 9.59,-1.49 2.56,-0.99 4.69,-2.35 6.43,-4.13 1.72,-1.75 3.04,-3.85 3.92,-6.31 0.89,-2.46 1.34,-5.11 1.34,-8zm103.19 61.58c0,0.91 -0.05,1.7 -0.15,2.35 -0.1,0.66 -0.28,1.21 -0.51,1.67 -0.25,0.46 -0.53,0.76 -0.86,0.97 -0.33,0.2 -0.69,0.3 -1.09,0.3l-46.11 0c-1.14,0 -2.23,-0.38 -3.24,-1.14 -1.01,-0.78 -1.52,-2.12 -1.52,-4.05l0 -85.64c0,-1.93 0.51,-3.27 1.52,-4.05 1.01,-0.76 2.1,-1.14 3.24,-1.14l45.58 0c0.4,0 0.76,0.1 1.09,0.3 0.33,0.2 0.58,0.51 0.78,0.97 0.18,0.46 0.36,1.01 0.48,1.67 0.13,0.66 0.18,1.5 0.18,2.49 0,0.91 -0.05,1.67 -0.18,2.35 -0.13,0.66 -0.31,1.21 -0.48,1.65 -0.2,0.4 -0.48,0.71 -0.78,0.91 -0.33,0.2 -0.69,0.3 -1.09,0.3l-37.58 0 0 30.08 32.26 0c0.4,0 0.76,0.1 1.09,0.33 0.3,0.23 0.58,0.53 0.81,0.93 0.23,0.41 0.38,0.94 0.48,1.62 0.1,0.71 0.15,1.52 0.15,2.45 0,0.91 -0.05,1.67 -0.15,2.3 -0.1,0.66 -0.25,1.16 -0.48,1.57 -0.23,0.41 -0.51,0.69 -0.81,0.86 -0.33,0.18 -0.69,0.25 -1.09,0.25l-32.26 0 0 34.34 38.11 0c0.41,0 0.76,0.1 1.09,0.3 0.33,0.2 0.61,0.51 0.86,0.92 0.23,0.43 0.41,0.98 0.51,1.64 0.1,0.66 0.15,1.5 0.15,2.49zm101.55 3.36c0,0.41 -0.08,0.74 -0.23,1.04 -0.15,0.3 -0.46,0.55 -0.96,0.76 -0.48,0.18 -1.19,0.33 -2.07,0.43 -0.89,0.1 -2.08,0.15 -3.55,0.15 -1.29,0 -2.36,-0.05 -3.17,-0.15 -0.81,-0.1 -1.47,-0.25 -1.98,-0.48 -0.48,-0.23 -0.86,-0.53 -1.14,-0.94 -0.28,-0.38 -0.51,-0.89 -0.71,-1.47l-8.81 -22.66c-1.04,-2.58 -2.12,-4.94 -3.24,-7.09 -1.11,-2.15 -2.43,-4 -3.98,-5.57 -1.52,-1.57 -3.34,-2.76 -5.42,-3.65 -2.08,-0.86 -4.58,-1.29 -7.5,-1.29l-8.53 0 0 40.92c0,0.41 -0.1,0.74 -0.33,1.04 -0.23,0.3 -0.58,0.53 -1.04,0.71 -0.48,0.18 -1.11,0.33 -1.93,0.46 -0.83,0.13 -1.85,0.18 -3.09,0.18 -1.24,0 -2.25,-0.05 -3.09,-0.18 -0.81,-0.13 -1.47,-0.28 -1.95,-0.46 -0.51,-0.18 -0.83,-0.41 -1.04,-0.71 -0.2,-0.28 -0.3,-0.64 -0.3,-1.04l0 -88.9c0,-1.93 0.51,-3.27 1.52,-4.05 1.01,-0.76 2.1,-1.14 3.24,-1.14l20.41 0c2.43,0 4.43,0.05 6.05,0.18 1.6,0.13 3.04,0.28 4.33,0.41 3.72,0.66 6.99,1.67 9.85,3.04 2.84,1.39 5.21,3.14 7.14,5.27 1.95,2.12 3.39,4.56 4.36,7.32 0.96,2.73 1.44,5.77 1.44,9.09 0,3.19 -0.43,6.08 -1.29,8.63 -0.88,2.53 -2.12,4.79 -3.75,6.73 -1.65,1.95 -3.59,3.65 -5.87,5.09 -2.28,1.42 -4.81,2.63 -7.65,3.62 1.6,0.71 3.01,1.57 4.31,2.63 1.29,1.06 2.48,2.35 3.59,3.82 1.11,1.5 2.18,3.22 3.17,5.14 0.99,1.93 1.98,4.1 2.96,6.53l8.61 21.17c0.69,1.77 1.14,3.04 1.32,3.75 0.2,0.71 0.31,1.26 0.31,1.67zm-19.22 -67.5c0,-3.75 -0.84,-6.94 -2.53,-9.55 -1.67,-2.58 -4.48,-4.46 -8.46,-5.59 -1.24,-0.36 -2.63,-0.58 -4.18,-0.74 -1.57,-0.15 -3.59,-0.23 -6.13,-0.23l-10.76 0 0 32.36 12.46 0c3.37,0 6.28,-0.41 8.74,-1.21 2.43,-0.83 4.48,-1.98 6.1,-3.42 1.65,-1.47 2.84,-3.19 3.62,-5.16 0.76,-1.98 1.14,-4.13 1.14,-6.46z"/>
 </g>
</svg>
